<svg xmlns="http://www.w3.org/2000/svg" xmlns:xlink="http://www.w3.org/1999/xlink" id="body_1" preserveAspectRatio="xMinYMin meet" viewBox="0 0 793 1121"><defs><clipPath id="1"><path id="" clip-rule="evenodd" transform="matrix(1 0 0 1 0 0)" d="M0 841L0 -0.9199829L0 -0.9199829L595.32 -0.9199829L595.32 -0.9199829L595.32 841L595.32 841L0 841z" /></clipPath><clipPath id="2"><path id="" clip-rule="evenodd" transform="matrix(1 0 0 1 0 0)" d="M120.98 439.91L168.02 439.91L168.02 439.91L168.02 410.126L168.02 410.126L120.98 410.126z" /></clipPath><clipPath id="3"><path id="" clip-rule="evenodd" transform="matrix(1 0 0 1 0 0)" d="M37.8 808.96L551.74 808.96L551.74 808.96L551.74 28.24005L551.74 28.24005L37.8 28.24005z" /></clipPath><clipPath id="4"><path id="" clip-rule="evenodd" transform="matrix(1 0 0 1 0 0)" d="M120.98 501.35L168.02 501.35L168.02 501.35L168.02 471.59L168.02 471.59L120.98 471.59z" /></clipPath><clipPath id="5"><path id="" clip-rule="evenodd" transform="matrix(1 0 0 1 0 0)" d="M37.8 685.7L551.74 685.7L551.74 685.7L551.74 655.94L551.74 655.94L37.8 655.94z" /></clipPath><clipPath id="6"><path id="" clip-rule="evenodd" transform="matrix(1 0 0 1 0 0)" d="M37.8 808.96L551.74 808.96L551.74 808.96L551.74 28.24005L551.74 28.24005L37.8 28.24005z" /></clipPath><clipPath id="7"><path id="" clip-rule="evenodd" transform="matrix(1 0 0 1 0 0)" d="M325.75 162.9L408.07 162.9L408.07 162.9L408.07 123.9L408.07 123.9L325.75 123.9z" /></clipPath><clipPath id="8"><path id="" clip-rule="evenodd" transform="matrix(1 0 0 1 0 0)" d="M408.07 162.9L551.25 162.9L551.25 162.9L551.25 123.9L551.25 123.9L408.07 123.9z" /></clipPath><clipPath id="9"><path id="" clip-rule="evenodd" transform="matrix(1 0 0 1 0 0)" d="M168.5 201.9L551.25 201.9L551.25 201.9L551.25 162.9L551.25 162.9L168.5 162.9z" /></clipPath><clipPath id="10"><path id="" clip-rule="evenodd" transform="matrix(1 0 0 1 0 0)" d="M80.784 240.9L168.504 240.9L168.504 240.9L168.504 201.9L168.504 201.9L80.784 201.9z" /></clipPath><clipPath id="11"><path id="" clip-rule="evenodd" transform="matrix(1 0 0 1 0 0)" d="M168.5 240.9L325.75 240.9L325.75 240.9L325.75 201.9L325.75 201.9L168.5 201.9z" /></clipPath><clipPath id="12"><path id="" clip-rule="evenodd" transform="matrix(1 0 0 1 0 0)" d="M325.75 240.9L408.07 240.9L408.07 240.9L408.07 201.9L408.07 201.9L325.75 201.9z" /></clipPath><clipPath id="13"><path id="" clip-rule="evenodd" transform="matrix(1 0 0 1 0 0)" d="M80.784 288.09L168.504 288.09L168.504 288.09L168.504 240.906L168.504 240.906L80.784 240.906z" /></clipPath><clipPath id="14"><path id="" clip-rule="evenodd" transform="matrix(1 0 0 1 0 0)" d="M168.5 288.09L268.124 288.09L268.124 288.09L268.124 240.906L268.124 240.906L168.5 240.906z" /></clipPath><clipPath id="15"><path id="" clip-rule="evenodd" transform="matrix(1 0 0 1 0 0)" d="M268.13 288.09L325.754 288.09L325.754 288.09L325.754 240.906L325.754 240.906L268.13 240.906z" /></clipPath><clipPath id="16"><path id="" clip-rule="evenodd" transform="matrix(1 0 0 1 0 0)" d="M325.75 288.09L551.25 288.09L551.25 288.09L551.25 240.906L551.25 240.906L325.75 240.906z" /></clipPath><clipPath id="17"><path id="" clip-rule="evenodd" transform="matrix(1 0 0 1 0 0)" d="M37.8 333.45L551.26 333.45L551.26 333.45L551.26 288.09L551.26 288.09L37.8 288.09z" /></clipPath><clipPath id="18"><path id="" clip-rule="evenodd" transform="matrix(1 0 0 1 0 0)" d="M37.8 74.67999L551.26 74.67999L551.26 74.67999L551.26 47.79999L551.26 47.79999L37.8 47.79999z" /></clipPath><clipPath id="19"><path id="" clip-rule="evenodd" transform="matrix(1 0 0 1 0 0)" d="M37.8 123.9L551.26 123.9L551.26 123.9L551.26 92.34003L551.26 92.34003L37.8 92.34003z" /></clipPath><clipPath id="20"><path id="" clip-rule="evenodd" transform="matrix(1 0 0 1 0 0)" d="M80.784 162.9L168.504 162.9L168.504 162.9L168.504 123.9L168.504 123.9L80.784 123.9z" /></clipPath><clipPath id="21"><path id="" clip-rule="evenodd" transform="matrix(1 0 0 1 0 0)" d="M168.5 162.9L325.75 162.9L325.75 162.9L325.75 123.9L325.75 123.9L168.5 123.9z" /></clipPath><clipPath id="22"><path id="" clip-rule="evenodd" transform="matrix(1 0 0 1 0 0)" d="M258.41 440.39L316.034 440.39L316.034 440.39L316.034 409.646L316.034 409.646L258.41 409.646z" /></clipPath><clipPath id="23"><path id="" clip-rule="evenodd" transform="matrix(1 0 0 1 0 0)" d="M335.47 440.39L395.35 440.39L395.35 440.39L395.35 409.646L395.35 409.646L335.47 409.646z" /></clipPath><clipPath id="24"><path id="" clip-rule="evenodd" transform="matrix(1 0 0 1 0 0)" d="M37.8 372.69L120.504 372.69L120.504 372.69L120.504 333.45L120.504 333.45L37.8 333.45z" /></clipPath><clipPath id="25"><path id="" clip-rule="evenodd" transform="matrix(1 0 0 1 0 0)" d="M120.5 372.69L291.28 372.69L291.28 372.69L291.28 333.45L291.28 333.45L120.5 333.45z" /></clipPath><clipPath id="26"><path id="" clip-rule="evenodd" transform="matrix(1 0 0 1 0 0)" d="M291.29 372.69L395.35 372.69L395.35 372.69L395.35 333.45L395.35 333.45L291.29 333.45z" /></clipPath><clipPath id="27"><path id="" clip-rule="evenodd" transform="matrix(1 0 0 1 0 0)" d="M37.8 471.11L59.064 471.11L59.064 471.11L59.064 409.646L59.064 409.646L37.8 409.646z" /></clipPath><clipPath id="28"><path id="" clip-rule="evenodd" transform="matrix(1 0 0 1 0 0)" d="M37.8 409.65L120.504 409.65L120.504 409.65L120.504 372.69L120.504 372.69L37.8 372.69z" /></clipPath><clipPath id="29"><path id="" clip-rule="evenodd" transform="matrix(1 0 0 1 0 0)" d="M120.5 409.65L551.25 409.65L551.25 409.65L551.25 372.69L551.25 372.69L120.5 372.69z" /></clipPath><clipPath id="30"><path id="" clip-rule="evenodd" transform="matrix(1 0 0 1 0 0)" d="M395.35 372.69L551.25 372.69L551.25 372.69L551.25 333.45L551.25 333.45L395.35 333.45z" /></clipPath><clipPath id="31"><path id="" clip-rule="evenodd" transform="matrix(1 0 0 1 0 0)" d="M59.064 471.11L120.504 471.11L120.504 471.11L120.504 440.39L120.504 440.39L59.064 440.39z" /></clipPath><clipPath id="32"><path id="" clip-rule="evenodd" transform="matrix(1 0 0 1 0 0)" d="M168.5 471.11L221.684 471.11L221.684 471.11L221.684 440.39L221.684 440.39L168.5 440.39z" /></clipPath><clipPath id="33"><path id="" clip-rule="evenodd" transform="matrix(1 0 0 1 0 0)" d="M335.47 471.11L408.07 471.11L408.07 471.11L408.07 440.39L408.07 440.39L335.47 440.39z" /></clipPath><clipPath id="34"><path id="" clip-rule="evenodd" transform="matrix(1 0 0 1 0 0)" d="M59.064 501.83L120.504 501.83L120.504 501.83L120.504 471.11L120.504 471.11L59.064 471.11z" /></clipPath><clipPath id="35"><path id="" clip-rule="evenodd" transform="matrix(1 0 0 1 0 0)" d="M168.5 501.83L211.964 501.83L211.964 501.83L211.964 471.11L211.964 471.11L168.5 471.11z" /></clipPath><clipPath id="36"><path id="" clip-rule="evenodd" transform="matrix(1 0 0 1 0 0)" d="M335.47 501.83L408.07 501.83L408.07 501.83L408.07 471.11L408.07 471.11L335.47 471.11z" /></clipPath><clipPath id="37"><path id="" clip-rule="evenodd" transform="matrix(1 0 0 1 0 0)" d="M59.064 440.39L120.504 440.39L120.504 440.39L120.504 409.646L120.504 409.646L59.064 409.646z" /></clipPath><clipPath id="38"><path id="" clip-rule="evenodd" transform="matrix(1 0 0 1 0 0)" d="M168.5 440.39L211.964 440.39L211.964 440.39L211.964 409.646L211.964 409.646L168.5 409.646z" /></clipPath><clipPath id="39"><path id="" clip-rule="evenodd" transform="matrix(1 0 0 1 0 0)" d="M335.47 686.18L408.07 686.18L408.07 686.18L408.07 655.46L408.07 655.46L335.47 655.46z" /></clipPath><clipPath id="40"><path id="" clip-rule="evenodd" transform="matrix(1 0 0 1 0 0)" d="M59.064 532.55L120.504 532.55L120.504 532.55L120.504 501.83L120.504 501.83L59.064 501.83z" /></clipPath><clipPath id="41"><path id="" clip-rule="evenodd" transform="matrix(1 0 0 1 0 0)" d="M59.064 563.27L120.504 563.27L120.504 563.27L120.504 532.55L120.504 532.55L59.064 532.55z" /></clipPath><clipPath id="42"><path id="" clip-rule="evenodd" transform="matrix(1 0 0 1 0 0)" d="M59.064 593.99L120.504 593.99L120.504 593.99L120.504 563.27L120.504 563.27L59.064 563.27z" /></clipPath><clipPath id="43"><path id="" clip-rule="evenodd" transform="matrix(1 0 0 1 0 0)" d="M168.5 593.99L211.964 593.99L211.964 593.99L211.964 563.27L211.964 563.27L168.5 563.27z" /></clipPath><clipPath id="44"><path id="" clip-rule="evenodd" transform="matrix(1 0 0 1 0 0)" d="M258.41 593.99L301.01 593.99L301.01 593.99L301.01 563.27L301.01 563.27L258.41 563.27z" /></clipPath><clipPath id="45"><path id="" clip-rule="evenodd" transform="matrix(1 0 0 1 0 0)" d="M335.47 593.99L408.07 593.99L408.07 593.99L408.07 563.27L408.07 563.27L335.47 563.27z" /></clipPath><clipPath id="46"><path id="" clip-rule="evenodd" transform="matrix(1 0 0 1 0 0)" d="M238.97 741.496L551.26 741.496L551.26 741.496L551.26 716.896L551.26 716.896L238.97 716.896z" /></clipPath><clipPath id="47"><path id="" clip-rule="evenodd" transform="matrix(1 0 0 1 0 0)" d="M395.35 793.816L551.25 793.816L551.25 793.816L551.25 778.456L551.25 778.456L395.35 778.456z" /></clipPath><clipPath id="48"><path id="" clip-rule="evenodd" transform="matrix(1 0 0 1 0 0)" d="M59.064 624.74L120.504 624.74L120.504 624.74L120.504 593.996L120.504 593.996L59.064 593.996z" /></clipPath><clipPath id="49"><path id="" clip-rule="evenodd" transform="matrix(1 0 0 1 0 0)" d="M59.064 655.46L120.504 655.46L120.504 655.46L120.504 624.74L120.504 624.74L59.064 624.74z" /></clipPath><clipPath id="50"><path id="" clip-rule="evenodd" transform="matrix(1 0 0 1 0 0)" d="M168.5 655.46L325.75 655.46L325.75 655.46L325.75 624.74L325.75 624.74L168.5 624.74z" /></clipPath><clipPath id="51"><path id="" clip-rule="evenodd" transform="matrix(1 0 0 1 0 0)" d="M335.47 655.46L547.53 655.46L547.53 655.46L547.53 624.74L547.53 624.74L335.47 624.74z" /></clipPath><clipPath id="52"><path id="" clip-rule="evenodd" transform="matrix(1 0 0 1 0 0)" d="M37.8 532.55L59.064 532.55L59.064 532.55L59.064 471.11L59.064 471.11L37.8 471.11z" /></clipPath><clipPath id="53"><path id="" clip-rule="evenodd" transform="matrix(1 0 0 1 0 0)" d="M37.8 624.74L59.064 624.74L59.064 624.74L59.064 532.556L59.064 532.556L37.8 532.556z" /></clipPath><clipPath id="54"><path id="" clip-rule="evenodd" transform="matrix(1 0 0 1 0 0)" d="M37.8 716.9L59.064 716.9L59.064 716.9L59.064 624.74L59.064 624.74L37.8 624.74z" /></clipPath><clipPath id="55"><path id="" clip-rule="evenodd" transform="matrix(1 0 0 1 0 0)" d="M37.8 793.816L238.97 793.816L238.97 793.816L238.97 716.896L238.97 716.896L37.8 716.896z" /></clipPath><clipPath id="56"><path id="" clip-rule="evenodd" transform="matrix(1 0 0 1 0 0)" d="M37.8 240.9L80.784 240.9L80.784 240.9L80.784 123.9L80.784 123.9L37.8 123.9z" /></clipPath><clipPath id="57"><path id="" clip-rule="evenodd" transform="matrix(1 0 0 1 0 0)" d="M59.064 716.9L120.504 716.9L120.504 716.9L120.504 686.18L120.504 686.18L59.064 686.18z" /></clipPath><clipPath id="58"><path id="" clip-rule="evenodd" transform="matrix(1 0 0 1 0 0)" d="M59.064 686.18L120.504 686.18L120.504 686.18L120.504 655.46L120.504 655.46L59.064 655.46z" /></clipPath><clipPath id="59"><path id="" clip-rule="evenodd" transform="matrix(1 0 0 1 0 0)" d="M168.5 686.18L211.964 686.18L211.964 686.18L211.964 655.46L211.964 655.46L168.5 655.46z" /></clipPath><clipPath id="60"><path id="" clip-rule="evenodd" transform="matrix(1 0 0 1 0 0)" d="M80.784 201.9L168.504 201.9L168.504 201.9L168.504 162.9L168.504 162.9L80.784 162.9z" /></clipPath><clipPath id="61"><path id="" clip-rule="evenodd" transform="matrix(1 0 0 1 0 0)" d="M37.8 288.09L80.784 288.09L80.784 288.09L80.784 240.906L80.784 240.906L37.8 240.906z" /></clipPath><clipPath id="62"><path id="" clip-rule="evenodd" transform="matrix(1 0 0 1 0 0)" d="M35.88 811L553.78 811L553.78 811L553.78 26.32001L553.78 26.32001L35.88 26.32001z" /></clipPath></defs><g transform="matrix(1.333333 0 0 1.333333 0 0)"><g clip-path="url(#1)"><g clip-path="url(#2)"></g><g clip-path="url(#3)"></g><g clip-path="url(#4)"></g><g clip-path="url(#5)"></g><g clip-path="url(#6)"></g><g clip-path="url(#7)"></g><g clip-path="url(#8)"></g><g clip-path="url(#9)"></g><g clip-path="url(#10)"></g><g clip-path="url(#11)"></g><g clip-path="url(#12)"></g><g clip-path="url(#13)"></g><g clip-path="url(#14)"></g><g clip-path="url(#15)"></g><g clip-path="url(#16)"></g><g clip-path="url(#17)"></g><g clip-path="url(#18)"></g><g clip-path="url(#19)"></g><g clip-path="url(#20)"></g><g clip-path="url(#21)"></g><g clip-path="url(#22)"></g><g clip-path="url(#23)"></g><g clip-path="url(#24)"></g><g clip-path="url(#25)"></g><g clip-path="url(#26)"></g><g clip-path="url(#27)"></g><g clip-path="url(#28)"></g><g clip-path="url(#29)"></g><g clip-path="url(#30)"></g><g clip-path="url(#31)"></g><g clip-path="url(#32)"></g><g clip-path="url(#33)"></g><g clip-path="url(#34)"></g><g clip-path="url(#35)"></g><g clip-path="url(#36)"></g><g clip-path="url(#37)"></g><g clip-path="url(#38)"></g><g clip-path="url(#39)"></g><g clip-path="url(#40)"></g><g clip-path="url(#41)"></g><g clip-path="url(#42)"></g><g clip-path="url(#43)"></g><g clip-path="url(#44)"></g><g clip-path="url(#45)"></g><g clip-path="url(#46)"></g><g clip-path="url(#47)"></g><g clip-path="url(#48)"></g><g clip-path="url(#49)"></g><g clip-path="url(#50)"></g><g clip-path="url(#51)"></g><g clip-path="url(#52)"></g><g clip-path="url(#53)"></g><g clip-path="url(#54)"></g><g clip-path="url(#55)"></g><g clip-path="url(#56)"></g><g clip-path="url(#57)"></g><g clip-path="url(#58)"></g><g clip-path="url(#59)"></g><g clip-path="url(#60)"></g><g clip-path="url(#61)"></g><g clip-path="url(#62)"><path id="443" transform="matrix(1 0 0 -1 0 841)" d="M325.33 716.56L325.33 677.68" stroke="#000000" stroke-width="0.14" stroke-linecap="square" fill="none" /><path id="444" transform="matrix(1 0 0 -1 0 841)" d="M325.27 677.62L326.23 677.62L326.23 677.62L326.23 716.62L326.23 716.62L325.27 716.62z" stroke="none" fill="#000000" fill-rule="evenodd" /><path id="445" transform="matrix(1 0 0 -1 0 841)" d="M407.65 716.56L407.65 677.68" stroke="#000000" stroke-width="0.14" stroke-linecap="square" fill="none" /><path id="446" transform="matrix(1 0 0 -1 0 841)" d="M407.59 677.62L408.55 677.62L408.55 677.62L408.55 716.62L408.55 716.62L407.59 716.62z" stroke="none" fill="#000000" fill-rule="evenodd" /><path id="447" transform="matrix(1 0 0 -1 0 841)" d="M550.3 62.544L552.22 62.544L552.22 62.544L552.22 747.694L552.22 747.694L550.3 747.694z" stroke="none" fill="#000000" fill-rule="evenodd" /><path id="448" transform="matrix(1 0 0 -1 0 841)" d="M36.36 46.2L38.28 46.2L38.28 46.2L38.28 749.62L38.28 749.62L36.36 749.62z" stroke="none" fill="#000000" fill-rule="evenodd" /><path id="449" transform="matrix(1 0 0 -1 0 841)" d="M550.3 48.144L552.22 48.144L552.22 48.144L552.22 62.544L552.22 62.544L550.3 62.544z" stroke="none" fill="#000000" fill-rule="evenodd" /><path id="450" transform="matrix(1 0 0 -1 0 841)" d="M80.364 716.56L80.364 553.93" stroke="#000000" stroke-width="0.14" stroke-linecap="square" fill="none" /><path id="451" transform="matrix(1 0 0 -1 0 841)" d="M80.304 553.87L81.264 553.87L81.264 553.87L81.264 716.61L81.264 716.61L80.304 716.61z" stroke="none" fill="#000000" fill-rule="evenodd" /><path id="452" transform="matrix(1 0 0 -1 0 841)" d="M168.08 716.56L168.08 553.93" stroke="#000000" stroke-width="0.14" stroke-linecap="square" fill="none" /><path id="453" transform="matrix(1 0 0 -1 0 841)" d="M168.02 553.87L168.98 553.87L168.98 553.87L168.98 716.61L168.98 716.61L168.02 716.61z" stroke="none" fill="#000000" fill-rule="evenodd" /><path id="454" transform="matrix(1 0 0 -1 0 841)" d="M325.33 638.56L325.33 553.93" stroke="#000000" stroke-width="0.14" stroke-linecap="square" fill="none" /><path id="455" transform="matrix(1 0 0 -1 0 841)" d="M325.27 553.87L326.23 553.87L326.23 553.87L326.23 638.614L326.23 638.614L325.27 638.614z" stroke="none" fill="#000000" fill-rule="evenodd" /><path id="456" transform="matrix(1 0 0 -1 0 841)" d="M407.65 638.56L407.65 599.68" stroke="#000000" stroke-width="0.14" stroke-linecap="square" fill="none" /><path id="457" transform="matrix(1 0 0 -1 0 841)" d="M407.59 599.62L408.55 599.62L408.55 599.62L408.55 638.62L408.55 638.62L407.59 638.62z" stroke="none" fill="#000000" fill-rule="evenodd" /><path id="458" transform="matrix(1 0 0 -1 0 841)" d="M267.71 599.56L267.71 553.93" stroke="#000000" stroke-width="0.14" stroke-linecap="square" fill="none" /><path id="459" transform="matrix(1 0 0 -1 0 841)" d="M267.65 553.87L268.61 553.87L268.61 553.87L268.61 599.614L268.61 599.614L267.65 599.614z" stroke="none" fill="#000000" fill-rule="evenodd" /><path id="460" transform="matrix(1 0 0 -1 0 841)" d="M120.08 506.53L120.08 125.12" stroke="#000000" stroke-width="0.14" stroke-linecap="square" fill="none" /><path id="461" transform="matrix(1 0 0 -1 0 841)" d="M120.02 125.06L120.98 125.06L120.98 125.06L120.98 506.59L120.98 506.59L120.02 506.59z" stroke="none" fill="#000000" fill-rule="evenodd" /><path id="462" transform="matrix(1 0 0 -1 0 841)" d="M290.87 506.53L290.87 467.89" stroke="#000000" stroke-width="0.14" stroke-linecap="square" fill="none" /><path id="463" transform="matrix(1 0 0 -1 0 841)" d="M290.81 467.83L291.77 467.83L291.77 467.83L291.77 506.59L291.77 506.59L290.81 506.59z" stroke="none" fill="#000000" fill-rule="evenodd" /><path id="464" transform="matrix(1 0 0 -1 0 841)" d="M394.93 506.53L394.93 467.89" stroke="#000000" stroke-width="0.14" stroke-linecap="square" fill="none" /><path id="465" transform="matrix(1 0 0 -1 0 841)" d="M394.87 467.83L395.83 467.83L395.83 467.83L395.83 506.59L395.83 506.59L394.87 506.59z" stroke="none" fill="#000000" fill-rule="evenodd" /><path id="466" transform="matrix(1 0 0 -1 0 841)" d="M58.62 430.81L58.62 125.12" stroke="#000000" stroke-width="0.14" stroke-linecap="square" fill="none" /><path id="467" transform="matrix(1 0 0 -1 0 841)" d="M58.56 125.06L59.544 125.06L59.544 125.06L59.544 430.87L59.544 430.87L58.56 430.87z" stroke="none" fill="#000000" fill-rule="evenodd" /><path id="468" transform="matrix(1 0 0 -1 0 841)" d="M238.01 46.2L239.93 46.2L239.93 46.2L239.93 123.144L239.93 123.144L238.01 123.144z" stroke="none" fill="#000000" fill-rule="evenodd" /><path id="469" transform="matrix(1 0 0 -1 0 841)" d="M38.28 747.7L552.22 747.7L552.22 747.7L552.22 749.62L552.22 749.62L38.28 749.62z" stroke="none" fill="#000000" fill-rule="evenodd" /><path id="470" transform="matrix(1 0 0 -1 0 841)" d="M38.34 717.52L550.24 717.52" stroke="#000000" stroke-width="0.14" stroke-linecap="square" fill="none" /><path id="471" transform="matrix(1 0 0 -1 0 841)" d="M38.28 716.62L550.3 716.62L550.3 716.62L550.3 717.58L550.3 717.58L38.28 717.58z" stroke="none" fill="#000000" fill-rule="evenodd" /><path id="472" transform="matrix(1 0 0 -1 0 841)" d="M81.324 678.52L550.24 678.52" stroke="#000000" stroke-width="0.14" stroke-linecap="square" fill="none" /><path id="473" transform="matrix(1 0 0 -1 0 841)" d="M81.264 677.62L550.294 677.62L550.294 677.62L550.294 678.58L550.294 678.58L81.264 678.58z" stroke="none" fill="#000000" fill-rule="evenodd" /><path id="474" transform="matrix(1 0 0 -1 0 841)" d="M81.324 639.52L550.24 639.52" stroke="#000000" stroke-width="0.14" stroke-linecap="square" fill="none" /><path id="475" transform="matrix(1 0 0 -1 0 841)" d="M81.264 638.62L550.294 638.62L550.294 638.62L550.294 639.58L550.294 639.58L81.264 639.58z" stroke="none" fill="#000000" fill-rule="evenodd" /><path id="476" transform="matrix(1 0 0 -1 0 841)" d="M38.34 600.52L550.24 600.52" stroke="#000000" stroke-width="0.14" stroke-linecap="square" fill="none" /><path id="477" transform="matrix(1 0 0 -1 0 841)" d="M38.28 599.62L550.3 599.62L550.3 599.62L550.3 600.58L550.3 600.58L38.28 600.58z" stroke="none" fill="#000000" fill-rule="evenodd" /><path id="478" transform="matrix(1 0 0 -1 0 841)" d="M38.28 551.95L552.22 551.95L552.22 551.95L552.22 553.87L552.22 553.87L38.28 553.87z" stroke="none" fill="#000000" fill-rule="evenodd" /><path id="479" transform="matrix(1 0 0 -1 0 841)" d="M38.28 506.59L552.22 506.59L552.22 506.59L552.22 508.51L552.22 508.51L38.28 508.51z" stroke="none" fill="#000000" fill-rule="evenodd" /><path id="480" transform="matrix(1 0 0 -1 0 841)" d="M38.34 468.73L550.24 468.73" stroke="#000000" stroke-width="0.14" stroke-linecap="square" fill="none" /><path id="481" transform="matrix(1 0 0 -1 0 841)" d="M38.28 467.83L550.3 467.83L550.3 467.83L550.3 468.79L550.3 468.79L38.28 468.79z" stroke="none" fill="#000000" fill-rule="evenodd" /><path id="482" transform="matrix(1 0 0 -1 0 841)" d="M38.34 431.77L550.24 431.77" stroke="#000000" stroke-width="0.14" stroke-linecap="square" fill="none" /><path id="483" transform="matrix(1 0 0 -1 0 841)" d="M38.28 430.87L550.3 430.87L550.3 430.87L550.3 431.83L550.3 431.83L38.28 431.83z" stroke="none" fill="#000000" fill-rule="evenodd" /><path id="484" transform="matrix(1 0 0 -1 0 841)" d="M59.604 401.03L550.24 401.03" stroke="#000000" stroke-width="0.14" stroke-linecap="square" fill="none" /><path id="485" transform="matrix(1 0 0 -1 0 841)" d="M59.544 400.13L550.294 400.13L550.294 400.13L550.294 401.09L550.294 401.09L59.544 401.09z" stroke="none" fill="#000000" fill-rule="evenodd" /><path id="486" transform="matrix(1 0 0 -1 0 841)" d="M38.34 370.31L550.24 370.31" stroke="#000000" stroke-width="0.14" stroke-linecap="square" fill="none" /><path id="487" transform="matrix(1 0 0 -1 0 841)" d="M38.28 369.41L550.3 369.41L550.3 369.41L550.3 370.37L550.3 370.37L38.28 370.37z" stroke="none" fill="#000000" fill-rule="evenodd" /><path id="488" transform="matrix(1 0 0 -1 0 841)" d="M59.604 339.59L550.24 339.59" stroke="#000000" stroke-width="0.14" stroke-linecap="square" fill="none" /><path id="489" transform="matrix(1 0 0 -1 0 841)" d="M59.544 338.69L550.294 338.69L550.294 338.69L550.294 339.65L550.294 339.65L59.544 339.65z" stroke="none" fill="#000000" fill-rule="evenodd" /><path id="490" transform="matrix(1 0 0 -1 0 841)" d="M38.34 308.87L550.24 308.87" stroke="#000000" stroke-width="0.14" stroke-linecap="square" fill="none" /><path id="491" transform="matrix(1 0 0 -1 0 841)" d="M38.28 307.97L550.3 307.97L550.3 307.97L550.3 308.93L550.3 308.93L38.28 308.93z" stroke="none" fill="#000000" fill-rule="evenodd" /><path id="492" transform="matrix(1 0 0 -1 0 841)" d="M59.604 278.15L550.24 278.15" stroke="#000000" stroke-width="0.14" stroke-linecap="square" fill="none" /><path id="493" transform="matrix(1 0 0 -1 0 841)" d="M59.544 277.25L550.294 277.25L550.294 277.25L550.294 278.21L550.294 278.21L59.544 278.21z" stroke="none" fill="#000000" fill-rule="evenodd" /><path id="494" transform="matrix(1 0 0 -1 0 841)" d="M59.604 247.43L550.24 247.43" stroke="#000000" stroke-width="0.14" stroke-linecap="square" fill="none" /><path id="495" transform="matrix(1 0 0 -1 0 841)" d="M59.544 246.53L550.294 246.53L550.294 246.53L550.294 247.49L550.294 247.49L59.544 247.49z" stroke="none" fill="#000000" fill-rule="evenodd" /><path id="496" transform="matrix(1 0 0 -1 0 841)" d="M38.34 216.68L550.24 216.68" stroke="#000000" stroke-width="0.14" stroke-linecap="square" fill="none" /><path id="497" transform="matrix(1 0 0 -1 0 841)" d="M38.28 215.78L550.3 215.78L550.3 215.78L550.3 216.74L550.3 216.74L38.28 216.74z" stroke="none" fill="#000000" fill-rule="evenodd" /><path id="498" transform="matrix(1 0 0 -1 0 841)" d="M59.604 185.96L550.24 185.96" stroke="#000000" stroke-width="0.14" stroke-linecap="square" fill="none" /><path id="499" transform="matrix(1 0 0 -1 0 841)" d="M59.544 185.06L550.294 185.06L550.294 185.06L550.294 186.02L550.294 186.02L59.544 186.02z" stroke="none" fill="#000000" fill-rule="evenodd" /><path id="500" transform="matrix(1 0 0 -1 0 841)" d="M59.604 155.24L550.24 155.24" stroke="#000000" stroke-width="0.14" stroke-linecap="square" fill="none" /><path id="501" transform="matrix(1 0 0 -1 0 841)" d="M59.544 154.34L550.294 154.34L550.294 154.34L550.294 155.3L550.294 155.3L59.544 155.3z" stroke="none" fill="#000000" fill-rule="evenodd" /><path id="502" transform="matrix(1 0 0 -1 0 841)" d="M38.28 123.14L552.22 123.14L552.22 123.14L552.22 125.06L552.22 125.06L38.28 125.06z" stroke="none" fill="#000000" fill-rule="evenodd" /><path id="503" transform="matrix(1 0 0 -1 0 841)" d="M38.28 46.2L552.22 46.2L552.22 46.2L552.22 48.144L552.22 48.144L38.28 48.144z" stroke="none" fill="#000000" fill-rule="evenodd" /></g></g></g></svg>