<svg xmlns="http://www.w3.org/2000/svg" xmlns:xlink="http://www.w3.org/1999/xlink" id="body_1" preserveAspectRatio="xMinYMin meet" viewBox="0 0 793 1123"><defs><clipPath id="1"><path id="" clip-rule="evenodd" transform="matrix(1 0 0 1 0 0)" d="M0 842L0 0L0 0L595 0L595 0L595 842L595 842L0 842z" /></clipPath><clipPath id="2"><path id="" clip-rule="evenodd" transform="matrix(1 0 0 1 0 0)" d="M121 423L168 423L168 423L168 394L168 394L121 394z" /></clipPath><clipPath id="3"><path id="" clip-rule="evenodd" transform="matrix(1 0 0 1 0 0)" d="M37 784L557 784L557 784L557 29L557 29L37 29z" /></clipPath><clipPath id="4"><path id="" clip-rule="evenodd" transform="matrix(1 0 0 1 0 0)" d="M121 483L168 483L168 483L168 454L168 454L121 454z" /></clipPath><clipPath id="5"><path id="" clip-rule="evenodd" transform="matrix(1 0 0 1 0 0)" d="M37 663L557 663L557 663L557 634L557 634L37 634z" /></clipPath><clipPath id="6"><path id="" clip-rule="evenodd" transform="matrix(1 0 0 1 0 0)" d="M37 784L557 784L557 784L557 29L557 29L37 29z" /></clipPath><clipPath id="7"><path id="" clip-rule="evenodd" transform="matrix(1 0 0 1 0 0)" d="M37 453L58 453L58 453L58 394L58 394L37 394z" /></clipPath><clipPath id="8"><path id="" clip-rule="evenodd" transform="matrix(1 0 0 1 0 0)" d="M37 453L58 453L58 453L58 394L58 394L37 394z" /></clipPath><clipPath id="9"><path id="" clip-rule="evenodd" transform="matrix(1 0 0 1 0 0)" d="M37 513L58 513L58 513L58 454L58 454L37 454z" /></clipPath><clipPath id="10"><path id="" clip-rule="evenodd" transform="matrix(1 0 0 1 0 0)" d="M37 513L58 513L58 513L58 454L58 454L37 454z" /></clipPath><clipPath id="11"><path id="" clip-rule="evenodd" transform="matrix(1 0 0 1 0 0)" d="M37 513L58 513L58 513L58 454L58 454L37 454z" /></clipPath><clipPath id="12"><path id="" clip-rule="evenodd" transform="matrix(1 0 0 1 0 0)" d="M37 603L58 603L58 603L58 514L58 514L37 514z" /></clipPath><clipPath id="13"><path id="" clip-rule="evenodd" transform="matrix(1 0 0 1 0 0)" d="M37 603L58 603L58 603L58 514L58 514L37 514z" /></clipPath><clipPath id="14"><path id="" clip-rule="evenodd" transform="matrix(1 0 0 1 0 0)" d="M37 603L58 603L58 603L58 514L58 514L37 514z" /></clipPath><clipPath id="15"><path id="" clip-rule="evenodd" transform="matrix(1 0 0 1 0 0)" d="M37 603L58 603L58 603L58 514L58 514L37 514z" /></clipPath><clipPath id="16"><path id="" clip-rule="evenodd" transform="matrix(1 0 0 1 0 0)" d="M37 693L58 693L58 693L58 604L58 604L37 604z" /></clipPath><clipPath id="17"><path id="" clip-rule="evenodd" transform="matrix(1 0 0 1 0 0)" d="M37 693L58 693L58 693L58 604L58 604L37 604z" /></clipPath><clipPath id="18"><path id="" clip-rule="evenodd" transform="matrix(1 0 0 1 0 0)" d="M37 693L58 693L58 693L58 604L58 604L37 604z" /></clipPath><clipPath id="19"><path id="" clip-rule="evenodd" transform="matrix(1 0 0 1 0 0)" d="M37 693L58 693L58 693L58 604L58 604L37 604z" /></clipPath><clipPath id="20"><path id="" clip-rule="evenodd" transform="matrix(1 0 0 1 0 0)" d="M37 693L58 693L58 693L58 604L58 604L37 604z" /></clipPath><clipPath id="21"><path id="" clip-rule="evenodd" transform="matrix(1 0 0 1 0 0)" d="M37 693L58 693L58 693L58 604L58 604L37 604z" /></clipPath><clipPath id="22"><path id="" clip-rule="evenodd" transform="matrix(1 0 0 1 0 0)" d="M37 768L239 768L239 768L239 694L239 694L37 694z" /></clipPath><clipPath id="23"><path id="" clip-rule="evenodd" transform="matrix(1 0 0 1 0 0)" d="M37 768L239 768L239 768L239 694L239 694L37 694z" /></clipPath><clipPath id="24"><path id="" clip-rule="evenodd" transform="matrix(1 0 0 1 0 0)" d="M37 768L239 768L239 768L239 694L239 694L37 694z" /></clipPath><clipPath id="25"><path id="" clip-rule="evenodd" transform="matrix(1 0 0 1 0 0)" d="M37 768L239 768L239 768L239 694L239 694L37 694z" /></clipPath><clipPath id="26"><path id="" clip-rule="evenodd" transform="matrix(1 0 0 1 0 0)" d="M37 768L239 768L239 768L239 694L239 694L37 694z" /></clipPath><clipPath id="27"><path id="" clip-rule="evenodd" transform="matrix(1 0 0 1 0 0)" d="M37 234L80 234L80 234L80 121L80 121L37 121z" /></clipPath><clipPath id="28"><path id="" clip-rule="evenodd" transform="matrix(1 0 0 1 0 0)" d="M37 234L80 234L80 234L80 121L80 121L37 121z" /></clipPath><clipPath id="29"><path id="" clip-rule="evenodd" transform="matrix(1 0 0 1 0 0)" d="M37 234L80 234L80 234L80 121L80 121L37 121z" /></clipPath><clipPath id="30"><path id="" clip-rule="evenodd" transform="matrix(1 0 0 1 0 0)" d="M37 234L80 234L80 234L80 121L80 121L37 121z" /></clipPath><clipPath id="31"><path id="" clip-rule="evenodd" transform="matrix(1 0 0 1 0 0)" d="M37 234L80 234L80 234L80 121L80 121L37 121z" /></clipPath><clipPath id="32"><path id="" clip-rule="evenodd" transform="matrix(1 0 0 1 0 0)" d="M37 234L80 234L80 234L80 121L80 121L37 121z" /></clipPath><clipPath id="33"><path id="" clip-rule="evenodd" transform="matrix(1 0 0 1 0 0)" d="M59 693L120 693L120 693L120 664L120 664L59 664z" /></clipPath><clipPath id="34"><path id="" clip-rule="evenodd" transform="matrix(1 0 0 1 0 0)" d="M240 717L556 717L556 717L556 694L556 694L240 694z" /></clipPath><clipPath id="35"><path id="" clip-rule="evenodd" transform="matrix(1 0 0 1 0 0)" d="M400 768L556 768L556 768L556 754L556 754L400 754z" /></clipPath><clipPath id="36"><path id="" clip-rule="evenodd" transform="matrix(1 0 0 1 0 0)" d="M59 603L120 603L120 603L120 574L120 574L59 574z" /></clipPath><clipPath id="37"><path id="" clip-rule="evenodd" transform="matrix(1 0 0 1 0 0)" d="M59 633L120 633L120 633L120 604L120 604L59 604z" /></clipPath><clipPath id="38"><path id="" clip-rule="evenodd" transform="matrix(1 0 0 1 0 0)" d="M59 633L120 633L120 633L120 604L120 604L59 604z" /></clipPath><clipPath id="39"><path id="" clip-rule="evenodd" transform="matrix(1 0 0 1 0 0)" d="M169 633L328 633L328 633L328 604L328 604L169 604z" /></clipPath><clipPath id="40"><path id="" clip-rule="evenodd" transform="matrix(1 0 0 1 0 0)" d="M169 633L328 633L328 633L328 604L328 604L169 604z" /></clipPath><clipPath id="41"><path id="" clip-rule="evenodd" transform="matrix(1 0 0 1 0 0)" d="M339 633L552 633L552 633L552 604L552 604L339 604z" /></clipPath><clipPath id="42"><path id="" clip-rule="evenodd" transform="matrix(1 0 0 1 0 0)" d="M59 663L120 663L120 663L120 634L120 634L59 634z" /></clipPath><clipPath id="43"><path id="" clip-rule="evenodd" transform="matrix(1 0 0 1 0 0)" d="M169 663L212 663L212 663L212 634L212 634L169 634z" /></clipPath><clipPath id="44"><path id="" clip-rule="evenodd" transform="matrix(1 0 0 1 0 0)" d="M339 663L412 663L412 663L412 634L412 634L339 634z" /></clipPath><clipPath id="45"><path id="" clip-rule="evenodd" transform="matrix(1 0 0 1 0 0)" d="M59 513L120 513L120 513L120 484L120 484L59 484z" /></clipPath><clipPath id="46"><path id="" clip-rule="evenodd" transform="matrix(1 0 0 1 0 0)" d="M59 543L120 543L120 543L120 514L120 514L59 514z" /></clipPath><clipPath id="47"><path id="" clip-rule="evenodd" transform="matrix(1 0 0 1 0 0)" d="M59 573L120 573L120 573L120 544L120 544L59 544z" /></clipPath><clipPath id="48"><path id="" clip-rule="evenodd" transform="matrix(1 0 0 1 0 0)" d="M169 573L212 573L212 573L212 544L212 544L169 544z" /></clipPath><clipPath id="49"><path id="" clip-rule="evenodd" transform="matrix(1 0 0 1 0 0)" d="M260 573L303 573L303 573L303 544L303 544L260 544z" /></clipPath><clipPath id="50"><path id="" clip-rule="evenodd" transform="matrix(1 0 0 1 0 0)" d="M339 573L412 573L412 573L412 544L412 544L339 544z" /></clipPath><clipPath id="51"><path id="" clip-rule="evenodd" transform="matrix(1 0 0 1 0 0)" d="M59 453L120 453L120 453L120 424L120 424L59 424z" /></clipPath><clipPath id="52"><path id="" clip-rule="evenodd" transform="matrix(1 0 0 1 0 0)" d="M169 453L222 453L222 453L222 424L222 424L169 424z" /></clipPath><clipPath id="53"><path id="" clip-rule="evenodd" transform="matrix(1 0 0 1 0 0)" d="M339 453L412 453L412 453L412 424L412 424L339 424z" /></clipPath><clipPath id="54"><path id="" clip-rule="evenodd" transform="matrix(1 0 0 1 0 0)" d="M59 483L120 483L120 483L120 454L120 454L59 454z" /></clipPath><clipPath id="55"><path id="" clip-rule="evenodd" transform="matrix(1 0 0 1 0 0)" d="M169 483L212 483L212 483L212 454L212 454L169 454z" /></clipPath><clipPath id="56"><path id="" clip-rule="evenodd" transform="matrix(1 0 0 1 0 0)" d="M339 483L412 483L412 483L412 454L412 454L339 454z" /></clipPath><clipPath id="57"><path id="" clip-rule="evenodd" transform="matrix(1 0 0 1 0 0)" d="M59 423L120 423L120 423L120 394L120 394L59 394z" /></clipPath><clipPath id="58"><path id="" clip-rule="evenodd" transform="matrix(1 0 0 1 0 0)" d="M169 423L212 423L212 423L212 394L212 394L169 394z" /></clipPath><clipPath id="59"><path id="" clip-rule="evenodd" transform="matrix(1 0 0 1 0 0)" d="M260 423L318 423L318 423L318 394L318 394L260 394z" /></clipPath><clipPath id="60"><path id="" clip-rule="evenodd" transform="matrix(1 0 0 1 0 0)" d="M339 423L399 423L399 423L399 394L399 394L339 394z" /></clipPath><clipPath id="61"><path id="" clip-rule="evenodd" transform="matrix(1 0 0 1 0 0)" d="M37 357L120 357L120 357L120 320L120 320L37 320z" /></clipPath><clipPath id="62"><path id="" clip-rule="evenodd" transform="matrix(1 0 0 1 0 0)" d="M121 357L293 357L293 357L293 320L293 320L121 320z" /></clipPath><clipPath id="63"><path id="" clip-rule="evenodd" transform="matrix(1 0 0 1 0 0)" d="M294 357L399 357L399 357L399 320L399 320L294 320z" /></clipPath><clipPath id="64"><path id="" clip-rule="evenodd" transform="matrix(1 0 0 1 0 0)" d="M400 357L556 357L556 357L556 320L556 320L400 320z" /></clipPath><clipPath id="65"><path id="" clip-rule="evenodd" transform="matrix(1 0 0 1 0 0)" d="M37 393L120 393L120 393L120 358L120 358L37 358z" /></clipPath><clipPath id="66"><path id="" clip-rule="evenodd" transform="matrix(1 0 0 1 0 0)" d="M121 393L556 393L556 393L556 358L556 358L121 358z" /></clipPath><clipPath id="67"><path id="" clip-rule="evenodd" transform="matrix(1 0 0 1 0 0)" d="M37 275L80 275L80 275L80 235L80 235L37 235z" /></clipPath><clipPath id="68"><path id="" clip-rule="evenodd" transform="matrix(1 0 0 1 0 0)" d="M37 275L80 275L80 275L80 235L80 235L37 235z" /></clipPath><clipPath id="69"><path id="" clip-rule="evenodd" transform="matrix(1 0 0 1 0 0)" d="M37 275L80 275L80 275L80 235L80 235L37 235z" /></clipPath><clipPath id="70"><path id="" clip-rule="evenodd" transform="matrix(1 0 0 1 0 0)" d="M81 275L168 275L168 275L168 235L168 235L81 235z" /></clipPath><clipPath id="71"><path id="" clip-rule="evenodd" transform="matrix(1 0 0 1 0 0)" d="M169 275L269 275L269 275L269 235L269 235L169 235z" /></clipPath><clipPath id="72"><path id="" clip-rule="evenodd" transform="matrix(1 0 0 1 0 0)" d="M270 275L328 275L328 275L328 235L328 235L270 235z" /></clipPath><clipPath id="73"><path id="" clip-rule="evenodd" transform="matrix(1 0 0 1 0 0)" d="M329 275L556 275L556 275L556 235L556 235L329 235z" /></clipPath><clipPath id="74"><path id="" clip-rule="evenodd" transform="matrix(1 0 0 1 0 0)" d="M37 319L556 319L556 319L556 276L556 276L37 276z" /></clipPath><clipPath id="75"><path id="" clip-rule="evenodd" transform="matrix(1 0 0 1 0 0)" d="M81 196L168 196L168 196L168 159L168 159L81 159z" /></clipPath><clipPath id="76"><path id="" clip-rule="evenodd" transform="matrix(1 0 0 1 0 0)" d="M169 196L556 196L556 196L556 159L556 159L169 159z" /></clipPath><clipPath id="77"><path id="" clip-rule="evenodd" transform="matrix(1 0 0 1 0 0)" d="M81 234L168 234L168 234L168 197L168 197L81 197z" /></clipPath><clipPath id="78"><path id="" clip-rule="evenodd" transform="matrix(1 0 0 1 0 0)" d="M169 234L328 234L328 234L328 197L328 197L169 197z" /></clipPath><clipPath id="79"><path id="" clip-rule="evenodd" transform="matrix(1 0 0 1 0 0)" d="M329 234L412 234L412 234L412 197L412 197L329 197z" /></clipPath><clipPath id="80"><path id="" clip-rule="evenodd" transform="matrix(1 0 0 1 0 0)" d="M37 73L556 73L556 73L556 48L556 48L37 48z" /></clipPath><clipPath id="81"><path id="" clip-rule="evenodd" transform="matrix(1 0 0 1 0 0)" d="M37 120L556 120L556 120L556 91L556 91L37 91z" /></clipPath><clipPath id="82"><path id="" clip-rule="evenodd" transform="matrix(1 0 0 1 0 0)" d="M81 158L168 158L168 158L168 121L168 121L81 121z" /></clipPath><clipPath id="83"><path id="" clip-rule="evenodd" transform="matrix(1 0 0 1 0 0)" d="M169 158L328 158L328 158L328 121L328 121L169 121z" /></clipPath><clipPath id="84"><path id="" clip-rule="evenodd" transform="matrix(1 0 0 1 0 0)" d="M329 158L412 158L412 158L412 121L412 121L329 121z" /></clipPath><clipPath id="85"><path id="" clip-rule="evenodd" transform="matrix(1 0 0 1 0 0)" d="M413 158L556 158L556 158L556 121L556 121L413 121z" /></clipPath><clipPath id="86"><path id="" clip-rule="evenodd" transform="matrix(1 0 0 1 0 0)" d="M35 787L560 787L560 787L560 27L560 27L35 27z" /></clipPath><clipPath id="87"><path id="" clip-rule="evenodd" transform="matrix(1 0 0 1 0 0)" d="M35 787L560 787L560 787L560 27L560 27L35 27z" /></clipPath><clipPath id="88"><path id="" clip-rule="evenodd" transform="matrix(1 0 0 1 0 0)" d="M35 787L560 787L560 787L560 27L560 27L35 27z" /></clipPath><clipPath id="89"><path id="" clip-rule="evenodd" transform="matrix(1 0 0 1 0 0)" d="M35 787L560 787L560 787L560 27L560 27L35 27z" /></clipPath><clipPath id="90"><path id="" clip-rule="evenodd" transform="matrix(1 0 0 1 0 0)" d="M35 787L560 787L560 787L560 27L560 27L35 27z" /></clipPath><clipPath id="91"><path id="" clip-rule="evenodd" transform="matrix(1 0 0 1 0 0)" d="M35 787L560 787L560 787L560 27L560 27L35 27z" /></clipPath><clipPath id="92"><path id="" clip-rule="evenodd" transform="matrix(1 0 0 1 0 0)" d="M35 787L560 787L560 787L560 27L560 27L35 27z" /></clipPath><clipPath id="93"><path id="" clip-rule="evenodd" transform="matrix(1 0 0 1 0 0)" d="M35 787L560 787L560 787L560 27L560 27L35 27z" /></clipPath><clipPath id="94"><path id="" clip-rule="evenodd" transform="matrix(1 0 0 1 0 0)" d="M35 787L560 787L560 787L560 27L560 27L35 27z" /></clipPath><clipPath id="95"><path id="" clip-rule="evenodd" transform="matrix(1 0 0 1 0 0)" d="M35 787L560 787L560 787L560 27L560 27L35 27z" /></clipPath><clipPath id="96"><path id="" clip-rule="evenodd" transform="matrix(1 0 0 1 0 0)" d="M35 787L560 787L560 787L560 27L560 27L35 27z" /></clipPath><clipPath id="97"><path id="" clip-rule="evenodd" transform="matrix(1 0 0 1 0 0)" d="M35 787L560 787L560 787L560 27L560 27L35 27z" /></clipPath><clipPath id="98"><path id="" clip-rule="evenodd" transform="matrix(1 0 0 1 0 0)" d="M35 787L560 787L560 787L560 27L560 27L35 27z" /></clipPath><clipPath id="99"><path id="" clip-rule="evenodd" transform="matrix(1 0 0 1 0 0)" d="M35 787L560 787L560 787L560 27L560 27L35 27z" /></clipPath><clipPath id="100"><path id="" clip-rule="evenodd" transform="matrix(1 0 0 1 0 0)" d="M35 787L560 787L560 787L560 27L560 27L35 27z" /></clipPath><clipPath id="101"><path id="" clip-rule="evenodd" transform="matrix(1 0 0 1 0 0)" d="M35 787L560 787L560 787L560 27L560 27L35 27z" /></clipPath><clipPath id="102"><path id="" clip-rule="evenodd" transform="matrix(1 0 0 1 0 0)" d="M35 787L560 787L560 787L560 27L560 27L35 27z" /></clipPath><clipPath id="103"><path id="" clip-rule="evenodd" transform="matrix(1 0 0 1 0 0)" d="M35 787L560 787L560 787L560 27L560 27L35 27z" /></clipPath><clipPath id="104"><path id="" clip-rule="evenodd" transform="matrix(1 0 0 1 0 0)" d="M35 787L560 787L560 787L560 27L560 27L35 27z" /></clipPath><clipPath id="105"><path id="" clip-rule="evenodd" transform="matrix(1 0 0 1 0 0)" d="M35 787L560 787L560 787L560 27L560 27L35 27z" /></clipPath><clipPath id="106"><path id="" clip-rule="evenodd" transform="matrix(1 0 0 1 0 0)" d="M35 787L560 787L560 787L560 27L560 27L35 27z" /></clipPath><clipPath id="107"><path id="" clip-rule="evenodd" transform="matrix(1 0 0 1 0 0)" d="M35 787L560 787L560 787L560 27L560 27L35 27z" /></clipPath><clipPath id="108"><path id="" clip-rule="evenodd" transform="matrix(1 0 0 1 0 0)" d="M35 787L560 787L560 787L560 27L560 27L35 27z" /></clipPath><clipPath id="109"><path id="" clip-rule="evenodd" transform="matrix(1 0 0 1 0 0)" d="M35 787L560 787L560 787L560 27L560 27L35 27z" /></clipPath><clipPath id="110"><path id="" clip-rule="evenodd" transform="matrix(1 0 0 1 0 0)" d="M35 787L560 787L560 787L560 27L560 27L35 27z" /></clipPath><clipPath id="111"><path id="" clip-rule="evenodd" transform="matrix(1 0 0 1 0 0)" d="M35 787L560 787L560 787L560 27L560 27L35 27z" /></clipPath><clipPath id="112"><path id="" clip-rule="evenodd" transform="matrix(1 0 0 1 0 0)" d="M35 787L560 787L560 787L560 27L560 27L35 27z" /></clipPath><clipPath id="113"><path id="" clip-rule="evenodd" transform="matrix(1 0 0 1 0 0)" d="M35 787L560 787L560 787L560 27L560 27L35 27z" /></clipPath><clipPath id="114"><path id="" clip-rule="evenodd" transform="matrix(1 0 0 1 0 0)" d="M35 787L560 787L560 787L560 27L560 27L35 27z" /></clipPath><clipPath id="115"><path id="" clip-rule="evenodd" transform="matrix(1 0 0 1 0 0)" d="M35 787L560 787L560 787L560 27L560 27L35 27z" /></clipPath><clipPath id="116"><path id="" clip-rule="evenodd" transform="matrix(1 0 0 1 0 0)" d="M35 787L560 787L560 787L560 27L560 27L35 27z" /></clipPath><clipPath id="117"><path id="" clip-rule="evenodd" transform="matrix(1 0 0 1 0 0)" d="M35 787L560 787L560 787L560 27L560 27L35 27z" /></clipPath><clipPath id="118"><path id="" clip-rule="evenodd" transform="matrix(1 0 0 1 0 0)" d="M35 787L560 787L560 787L560 27L560 27L35 27z" /></clipPath><clipPath id="119"><path id="" clip-rule="evenodd" transform="matrix(1 0 0 1 0 0)" d="M35 787L560 787L560 787L560 27L560 27L35 27z" /></clipPath></defs><g transform="matrix(1.333333 0 0 1.333333 0 0)"><g clip-path="url(#1)"><g clip-path="url(#2)"></g><g clip-path="url(#3)"></g><g clip-path="url(#4)"></g><g clip-path="url(#5)"></g><g clip-path="url(#6)"></g><g clip-path="url(#7)"></g><g clip-path="url(#8)"></g><g clip-path="url(#9)"></g><g clip-path="url(#10)"></g><g clip-path="url(#11)"></g><g clip-path="url(#12)"></g><g clip-path="url(#13)"></g><g clip-path="url(#14)"></g><g clip-path="url(#15)"></g><g clip-path="url(#16)"></g><g clip-path="url(#17)"></g><g clip-path="url(#18)"></g><g clip-path="url(#19)"></g><g clip-path="url(#20)"></g><g clip-path="url(#21)"></g><g clip-path="url(#22)"></g><g clip-path="url(#23)"></g><g clip-path="url(#24)"></g><g clip-path="url(#25)"></g><g clip-path="url(#26)"></g><g clip-path="url(#27)"></g><g clip-path="url(#28)"></g><g clip-path="url(#29)"></g><g clip-path="url(#30)"></g><g clip-path="url(#31)"></g><g clip-path="url(#32)"></g><g clip-path="url(#33)"></g><g clip-path="url(#34)"></g><g clip-path="url(#35)"></g><g clip-path="url(#36)"></g><g clip-path="url(#37)"></g><g clip-path="url(#38)"></g><g clip-path="url(#39)"></g><g clip-path="url(#40)"></g><g clip-path="url(#41)"></g><g clip-path="url(#42)"></g><g clip-path="url(#43)"></g><g clip-path="url(#44)"></g><g clip-path="url(#45)"></g><g clip-path="url(#46)"></g><g clip-path="url(#47)"></g><g clip-path="url(#48)"></g><g clip-path="url(#49)"></g><g clip-path="url(#50)"></g><g clip-path="url(#51)"></g><g clip-path="url(#52)"></g><g clip-path="url(#53)"></g><g clip-path="url(#54)"></g><g clip-path="url(#55)"></g><g clip-path="url(#56)"></g><g clip-path="url(#57)"></g><g clip-path="url(#58)"></g><g clip-path="url(#59)"></g><g clip-path="url(#60)"></g><g clip-path="url(#61)"></g><g clip-path="url(#62)"></g><g clip-path="url(#63)"></g><g clip-path="url(#64)"></g><g clip-path="url(#65)"></g><g clip-path="url(#66)"></g><g clip-path="url(#67)"></g><g clip-path="url(#68)"></g><g clip-path="url(#69)"></g><g clip-path="url(#70)"></g><g clip-path="url(#71)"></g><g clip-path="url(#72)"></g><g clip-path="url(#73)"></g><g clip-path="url(#74)"></g><g clip-path="url(#75)"></g><g clip-path="url(#76)"></g><g clip-path="url(#77)"></g><g clip-path="url(#78)"></g><g clip-path="url(#79)"></g><g clip-path="url(#80)"></g><g clip-path="url(#81)"></g><g clip-path="url(#82)"></g><g clip-path="url(#83)"></g><g clip-path="url(#84)"></g><g clip-path="url(#85)"></g><g clip-path="url(#86)"><path id="363" transform="matrix(1 0 0 -1 0 842)" d="M328 721L329 721L329 683L328 683z" stroke="none" fill="#000000" fill-rule="nonzero" /></g><g clip-path="url(#87)"><path id="364" transform="matrix(1 0 0 -1 0 842)" d="M412 721L413 721L413 683L412 683z" stroke="none" fill="#000000" fill-rule="nonzero" /></g><g clip-path="url(#88)"><path id="365" transform="matrix(1 0 0 -1 0 842)" d="M35 753L37 753L37 73L35 73z" stroke="none" fill="#000000" fill-rule="nonzero" /></g><g clip-path="url(#89)"><path id="366" transform="matrix(1 0 0 -1 0 842)" d="M555 751L557 751L557 73L555 73z" stroke="none" fill="#000000" fill-rule="nonzero" /></g><g clip-path="url(#90)"><path id="367" transform="matrix(1 0 0 -1 0 842)" d="M80 721L81 721L81 568L80 568z" stroke="none" fill="#000000" fill-rule="nonzero" /></g><g clip-path="url(#91)"><path id="368" transform="matrix(1 0 0 -1 0 842)" d="M168 721L169 721L169 568L168 568z" stroke="none" fill="#000000" fill-rule="nonzero" /></g><g clip-path="url(#92)"><path id="369" transform="matrix(1 0 0 -1 0 842)" d="M328 645L329 645L329 568L328 568z" stroke="none" fill="#000000" fill-rule="nonzero" /></g><g clip-path="url(#93)"><path id="370" transform="matrix(1 0 0 -1 0 842)" d="M412 645L413 645L413 607L412 607z" stroke="none" fill="#000000" fill-rule="nonzero" /></g><g clip-path="url(#94)"><path id="371" transform="matrix(1 0 0 -1 0 842)" d="M269 607L270 607L270 568L269 568z" stroke="none" fill="#000000" fill-rule="nonzero" /></g><g clip-path="url(#95)"><path id="372" transform="matrix(1 0 0 -1 0 842)" d="M120 522L121 522L121 150L120 150z" stroke="none" fill="#000000" fill-rule="nonzero" /></g><g clip-path="url(#96)"><path id="373" transform="matrix(1 0 0 -1 0 842)" d="M293 522L294 522L294 484L293 484z" stroke="none" fill="#000000" fill-rule="nonzero" /></g><g clip-path="url(#97)"><path id="374" transform="matrix(1 0 0 -1 0 842)" d="M399 522L400 522L400 484L399 484z" stroke="none" fill="#000000" fill-rule="nonzero" /></g><g clip-path="url(#98)"><path id="375" transform="matrix(1 0 0 -1 0 842)" d="M58 448L59 448L59 150L58 150z" stroke="none" fill="#000000" fill-rule="nonzero" /></g><g clip-path="url(#99)"><path id="376" transform="matrix(1 0 0 -1 0 842)" d="M238 148L240 148L240 73L238 73z" stroke="none" fill="#000000" fill-rule="nonzero" /></g><g clip-path="url(#100)"><path id="377" transform="matrix(1 0 0 -1 0 842)" d="M37 753L557 753L557 751L37 751z" stroke="none" fill="#000000" fill-rule="nonzero" /></g><g clip-path="url(#101)"><path id="378" transform="matrix(1 0 0 -1 0 842)" d="M37 722L555 722L555 721L37 721z" stroke="none" fill="#000000" fill-rule="nonzero" /></g><g clip-path="url(#102)"><path id="379" transform="matrix(1 0 0 -1 0 842)" d="M81 684L555 684L555 683L81 683z" stroke="none" fill="#000000" fill-rule="nonzero" /></g><g clip-path="url(#103)"><path id="380" transform="matrix(1 0 0 -1 0 842)" d="M81 646L555 646L555 645L81 645z" stroke="none" fill="#000000" fill-rule="nonzero" /></g><g clip-path="url(#104)"><path id="381" transform="matrix(1 0 0 -1 0 842)" d="M37 608L555 608L555 607L37 607z" stroke="none" fill="#000000" fill-rule="nonzero" /></g><g clip-path="url(#105)"><path id="382" transform="matrix(1 0 0 -1 0 842)" d="M37 568L557 568L557 566L37 566z" stroke="none" fill="#000000" fill-rule="nonzero" /></g><g clip-path="url(#106)"><path id="383" transform="matrix(1 0 0 -1 0 842)" d="M37 524L557 524L557 522L37 522z" stroke="none" fill="#000000" fill-rule="nonzero" /></g><g clip-path="url(#107)"><path id="384" transform="matrix(1 0 0 -1 0 842)" d="M37 485L555 485L555 484L37 484z" stroke="none" fill="#000000" fill-rule="nonzero" /></g><g clip-path="url(#108)"><path id="385" transform="matrix(1 0 0 -1 0 842)" d="M37 449L555 449L555 448L37 448z" stroke="none" fill="#000000" fill-rule="nonzero" /></g><g clip-path="url(#109)"><path id="386" transform="matrix(1 0 0 -1 0 842)" d="M59 419L555 419L555 418L59 418z" stroke="none" fill="#000000" fill-rule="nonzero" /></g><g clip-path="url(#110)"><path id="387" transform="matrix(1 0 0 -1 0 842)" d="M37 389L555 389L555 388L37 388z" stroke="none" fill="#000000" fill-rule="nonzero" /></g><g clip-path="url(#111)"><path id="388" transform="matrix(1 0 0 -1 0 842)" d="M59 359L555 359L555 358L59 358z" stroke="none" fill="#000000" fill-rule="nonzero" /></g><g clip-path="url(#112)"><path id="389" transform="matrix(1 0 0 -1 0 842)" d="M37 329L555 329L555 328L37 328z" stroke="none" fill="#000000" fill-rule="nonzero" /></g><g clip-path="url(#113)"><path id="390" transform="matrix(1 0 0 -1 0 842)" d="M59 299L555 299L555 298L59 298z" stroke="none" fill="#000000" fill-rule="nonzero" /></g><g clip-path="url(#114)"><path id="391" transform="matrix(1 0 0 -1 0 842)" d="M59 269L555 269L555 268L59 268z" stroke="none" fill="#000000" fill-rule="nonzero" /></g><g clip-path="url(#115)"><path id="392" transform="matrix(1 0 0 -1 0 842)" d="M37 239L555 239L555 238L37 238z" stroke="none" fill="#000000" fill-rule="nonzero" /></g><g clip-path="url(#116)"><path id="393" transform="matrix(1 0 0 -1 0 842)" d="M59 209L555 209L555 208L59 208z" stroke="none" fill="#000000" fill-rule="nonzero" /></g><g clip-path="url(#117)"><path id="394" transform="matrix(1 0 0 -1 0 842)" d="M59 179L555 179L555 178L59 178z" stroke="none" fill="#000000" fill-rule="nonzero" /></g><g clip-path="url(#118)"><path id="395" transform="matrix(1 0 0 -1 0 842)" d="M37 150L557 150L557 148L37 148z" stroke="none" fill="#000000" fill-rule="nonzero" /></g><g clip-path="url(#119)"><path id="396" transform="matrix(1 0 0 -1 0 842)" d="M37 75L557 75L557 73L37 73z" stroke="none" fill="#000000" fill-rule="nonzero" /></g></g></g></svg>